<?xml version="1.0" encoding="UTF-8"?> <svg xmlns="http://www.w3.org/2000/svg" id="Layer_2" viewBox="0 0 669.88 176.92"><defs><style>.cls-1{fill:#009ece;}.cls-2{fill:#e20152;}.cls-3{fill:#e51f4a;}.cls-4{fill:#1c3967;}.cls-5{fill:#87bc37;}.cls-6{fill:#3b3635;}.cls-7{opacity:.8;}</style></defs><g id="Layer_1-2"><g><g><g><path class="cls-5" d="M61.96,4.91c.46,.99,1.13,1.87,1.1,3.02-.03,1.46-1.09,2.99-1.92,4.13-2.01,2.77-4.5,5.11-7.28,7.1-1.62,1.16-4.37,3.13-6.51,2.6-.28-.07-.55-.18-.79-.33-1.81-1.14-.43-3.11,0-4.6-4.7,3.31-6.11,12.17-.16,14.87,5.1,2.32,11.62,.83,16.67-.92,7.26-2.51,14.53-6.38,19.18-12.68,3.03-4.12,4-9.1,6.51-13.49,1.05-1.83,2.69-2.88,3.99-4.44-.74-.01-1.48-.2-2.22-.13-2.61,.24-5.06,1.2-7.62,1.68-4.49,.84-8.96,1.93-13.49,2.54-2.48,.33-4.97,.48-7.46,.68Z"></path><path class="cls-1" d="M16.42,42.37c-.8,.92-1.21,2.18-1.57,3.33-.59,1.92-1.03,3.89-1.36,5.87-.4,2.39-.61,4.89-.29,7.3,.31,2.36,.69,4.64,1.68,6.82,4.02,8.93,14.15,12.01,23.12,13.13,8.03,1,15.87-.19,23.81-1.53,17.87-3.02,34.96-9.8,49.84-20.21,5.44-3.81,10.88-8.14,15.28-13.13,5.97-6.78,11.19-14.12,13.42-23.01,1.05-4.19,1.46-8.81-1.16-12.54-1.51-2.16-3.82-3.34-6.12-4.48-4.91-2.46-10.6-3.36-16.03-2.46-3.04,.51-5.96,1.63-8.73,2.94-5.84,2.76-11.53,5.86-16.35,10.22-5.14,4.65-9.06,10.47-14.13,15.2-7.65,7.13-16.37,13.08-25.71,17.75-7.49,3.74-16.08,7.49-24.6,7.5-4.17,0-9-1.51-10.72-5.71-.99-2.43-.4-4.49-.39-6.98Z"></path><path class="cls-4" d="M.36,92.7c-.78,1.63-.09,3.85,.11,5.56,.5,4.18,1.02,8.09,2.52,12.06,4.29,11.37,12.71,21.14,23.72,26.46,6.37,3.08,13.14,4.67,20,6.21,4.1,.93,8.36,1.18,12.54,1.46,6.98,.48,14.01,.12,20.95-.62,14.84-1.59,29.62-5.92,43.17-12.14,4.03-1.85,7.89-4.05,11.74-6.23,3.91-2.21,7.88-4.18,11.59-6.74,4.79-3.3,9.5-7.04,13.65-11.11,2.78-2.72,5.35-5.77,7.87-8.73,1.96-2.3,3.73-4.77,5.38-7.3,6.38-9.76,11.44-22.1,9.05-33.96-1.74-8.63-6.71-16.58-11.77-23.65-2.7-3.77-5.81-7.22-8.94-10.63-1.35-1.47-2.73-3.36-4.62-4.18-1.15-.5-1.62,.69-2.18,1.48-1.37,1.96-2.74,3.94-4.15,5.87-6.21,8.51-12.86,16.54-19.82,24.44-3.83,4.34-8.03,8.45-12.27,12.39-22.02,20.51-48.67,36.93-78.25,43.57-2.24,.5-4.55,.79-6.82,1.03-1.73,.18-3.51,.53-5.24,.6-2.76,.12-5.37-.23-8.09-.58-3.75-.49-7.89-1.33-11.27-3.11-3.08-1.62-5.64-4.34-7.25-7.41-.76-1.45-1.31-3.16-1.64-4.76Z"></path><path class="cls-2" d="M187.18,89.52c-4.33,2.53-7.53,6.04-11.27,9.32-4.49,3.93-9.22,7.59-13.81,11.41-20.32,16.91-40.8,33.76-64.6,45.66-12.41,6.2-26.26,11.56-40.31,11.71-5.29,.05-10.67-.88-15.55-2.92-2.22-.93-4.35-2.07-6.51-3.15-1.08-.54-2.17-1.21-3.33-1.55,1.02,1.45,2.51,2.47,3.97,3.44,2.2,1.47,4.5,2.81,6.82,4.07,10.77,5.84,23.05,8.79,35.23,9.32,27.36,1.2,54.82-8.12,76.82-24.31,9.17-6.75,18.14-14.73,23.85-24.74,1.82-3.19,2.93-6.85,4.08-10.31,2.13-6.39,3.37-12.85,4.17-19.52,.25-2.06,.43-4.12,.43-6.19,0-.71,.16-1.55,0-2.22Z"></path></g><g><path class="cls-4" d="M242.83,7.65l-17.14,102.65h-29.2L213.63,7.65h29.2Z"></path><path class="cls-4" d="M255.15,34.35h26.46l-2.01,12.33c2.05-5.06,5.41-8.76,10.07-11.09,4.66-2.33,9.57-3.5,14.73-3.5,6.46,0,11.7,1.7,15.7,5.11,4.01,3.41,6.01,7.89,6.01,13.46,0,2.16-.25,4.74-.75,7.75l-8.67,51.89h-28.9l7.67-45.65c.5-2.91,.75-4.84,.75-5.79,0-4.26-2.25-6.39-6.76-6.39-6.06,0-9.77,4.06-11.12,12.19l-7.68,45.65h-28.21l12.71-75.95Z"></path><path class="cls-4" d="M345.16,34.35h26.46l-2.01,12.33c2.05-5.06,5.41-8.76,10.07-11.09,4.66-2.33,9.57-3.5,14.73-3.5,6.46,0,11.7,1.7,15.7,5.11,4.01,3.41,6.01,7.89,6.01,13.46,0,2.16-.25,4.74-.75,7.75l-8.67,51.89h-28.9l7.67-45.65c.5-2.91,.75-4.84,.75-5.79,0-4.26-2.25-6.39-6.76-6.39-6.06,0-9.77,4.06-11.12,12.19l-7.68,45.65h-28.21l12.71-75.95Z"></path><path class="cls-4" d="M462.17,112.56c-10.58,0-19.47-3.14-26.66-9.44-7.19-6.29-10.79-14.88-10.79-25.76,0-13.08,4.17-23.84,12.52-32.26,8.35-8.42,18.89-12.63,31.62-12.63,11.63,0,20.87,3.3,27.71,9.89,6.84,6.59,10.26,14.73,10.26,24.4,0,14.39-4.4,25.62-13.2,33.69-8.8,8.07-19.29,12.11-31.47,12.11Zm1.2-18.5c5.26,0,8.84-3.91,10.72-11.73,1.88-7.82,2.82-14.36,2.82-19.63,0-8.02-2.91-12.03-8.72-12.03-5.16,0-8.74,4-10.72,11.99-1.98,8-2.97,14.53-2.97,19.59,0,7.87,2.96,11.81,8.87,11.81Z"></path><path class="cls-4" d="M592.12,34.35l-37.55,75.95h-22.9l-19.33-75.95h29.65l8.74,41.44,20.15-41.44h21.25Z"></path><path class="cls-4" d="M663.19,110.31h-29.73c-.15-1.45-.23-2.63-.23-3.54,0-2.56,.18-5.58,.55-9.06-5.97,9.55-14.29,14.32-24.97,14.32-7.22,0-13.06-2.08-17.52-6.24-4.46-4.16-6.69-9.38-6.69-15.64,0-4.66,1.2-8.94,3.61-12.82,2.4-3.89,5.81-6.98,10.22-9.29,4.41-2.3,8.92-3.82,13.53-4.55,4.61-.73,13.63-1.72,27.06-2.97,.63-1.85,.95-3.31,.95-4.36,0-4.16-2.91-6.24-8.73-6.24s-9.93,2.83-12.64,8.5l-24.74-5.04c6.27-14.09,20.05-21.13,41.36-21.13,10.78,0,19.25,1.87,25.42,5.6,6.17,3.74,9.25,9.24,9.25,16.51,0,3.26-1.8,14.79-5.41,34.59-1.35,7.37-2.03,12.26-2.03,14.66,0,1.95,.25,4.19,.75,6.69Zm-26.75-36.1c-13.81,1.05-20.71,5.46-20.71,13.24,0,4.26,2.23,6.39,6.69,6.39,2.86,0,5.71-1.28,8.56-3.84,2.86-2.56,4.67-7.82,5.46-15.79Z"></path></g></g><g class="cls-7"><path class="cls-3" d="M210.59,144.77h-2.14s-1.95-4.74-1.95-4.74h-6.08l-1.96,4.74h-1.97s6.7-15.68,6.7-15.68h.49l6.91,15.69Zm-4.68-6.12l-2.56-6.58-2.48,6.58h5.04Z"></path><path class="cls-3" d="M225.19,144.77h-1.79v-15.25h1.79v15.25Z"></path><path class="cls-6" d="M270.02,132.17l-1.63,.76c-.15-.63-.51-1.14-1.09-1.54-.58-.39-1.21-.59-1.9-.59-.51,0-.96,.1-1.34,.3-.38,.2-.7,.53-.95,.98-.16,.37-.25,.75-.25,1.13,0,.92,.43,1.61,1.3,2.08l3.92,1.44c.71,.4,1.26,.94,1.64,1.61,.38,.68,.57,1.4,.57,2.17,0,.66-.13,1.29-.4,1.89-.27,.6-.67,1.14-1.21,1.6-.96,.67-2.04,1.01-3.24,1.01-1.07,0-2.05-.27-2.95-.8-.48-.36-.85-.76-1.1-1.21-.25-.45-.48-1.03-.69-1.74l1.67-.84c0,.87,.31,1.59,.93,2.16,.62,.58,1.35,.87,2.19,.87,.33,0,.66-.05,.98-.15,.32-.1,.64-.27,.95-.5,.31-.23,.56-.55,.74-.94,.19-.4,.28-.81,.28-1.25,0-.66-.15-1.14-.44-1.46-.3-.31-.53-.53-.7-.64-.17-.11-.52-.28-1.04-.51l-2.64-.93c-.78-.37-1.42-.88-1.9-1.52-.48-.64-.72-1.36-.72-2.17,0-.21,.05-.58,.15-1.12,.1-.54,.43-1.12,.98-1.72,.55-.6,1.15-.97,1.8-1.1,.65-.13,1.23-.2,1.74-.2,.22,0,.39,0,.52,.02,.12,.01,.44,.07,.96,.18,.52,.1,1.06,.4,1.65,.9,.58,.49,.99,1.11,1.23,1.83Z"></path><path class="cls-6" d="M292.44,129.52l-.04,10.39c0,.91-.25,1.77-.76,2.61s-1.17,1.46-1.98,1.89c-1.13,.51-2.3,.76-3.5,.76s-2.3-.27-3.26-.8c-.96-.54-1.6-1.16-1.92-1.89-.32-.72-.52-1.27-.61-1.64-.09-.37-.13-.71-.13-1.01v-10.31h1.83v10.31c.1,.72,.3,1.36,.62,1.93,.32,.57,.77,1,1.36,1.29,.77,.33,1.55,.49,2.33,.49,.62,0,1.19-.1,1.71-.3,.52-.2,.96-.51,1.33-.92,.36-.41,.65-.82,.85-1.23,.2-.41,.3-.83,.3-1.27v-10.31h1.88Z"></path><path class="cls-6" d="M311.24,132.17l-1.63,.76c-.15-.63-.51-1.14-1.09-1.54-.58-.39-1.21-.59-1.9-.59-.51,0-.96,.1-1.34,.3-.38,.2-.7,.53-.95,.98-.17,.37-.25,.75-.25,1.13,0,.92,.43,1.61,1.3,2.08l3.92,1.44c.71,.4,1.26,.94,1.64,1.61,.38,.68,.57,1.4,.57,2.17,0,.66-.13,1.29-.4,1.89-.27,.6-.67,1.14-1.21,1.6-.96,.67-2.04,1.01-3.24,1.01-1.07,0-2.05-.27-2.95-.8-.48-.36-.85-.76-1.1-1.21-.25-.45-.48-1.03-.69-1.74l1.67-.84c0,.87,.31,1.59,.93,2.16,.62,.58,1.35,.87,2.18,.87,.33,0,.66-.05,.98-.15,.32-.1,.64-.27,.95-.5,.31-.23,.56-.55,.74-.94,.19-.4,.28-.81,.28-1.25,0-.66-.15-1.14-.44-1.46-.3-.31-.53-.53-.7-.64-.17-.11-.52-.28-1.04-.51l-2.64-.93c-.78-.37-1.42-.88-1.9-1.52-.48-.64-.72-1.36-.72-2.17,0-.21,.05-.58,.15-1.12,.1-.54,.43-1.12,.98-1.72,.55-.6,1.15-.97,1.8-1.1,.65-.13,1.23-.2,1.74-.2,.22,0,.39,0,.52,.02,.12,.01,.44,.07,.96,.18,.51,.1,1.06,.4,1.65,.9,.58,.49,.99,1.11,1.23,1.83Z"></path><path class="cls-6" d="M332.7,131.12h-4.39v13.65h-1.9v-13.65h-4.39v-1.61h10.68v1.61Z"></path><path class="cls-6" d="M354.87,144.77h-2.14s-1.95-4.74-1.95-4.74h-6.08l-1.96,4.74h-1.97s6.7-15.68,6.7-15.68h.49l6.91,15.69Zm-4.68-6.12l-2.56-6.58-2.48,6.58h5.04Z"></path><path class="cls-6" d="M369.47,144.77h-1.79v-15.25h1.79v15.25Z"></path><path class="cls-6" d="M396.1,145.1h-.37l-11.13-12.24v11.91h-1.71v-15.62h.43s11.03,12.26,11.03,12.26v-11.89h1.75v15.58Z"></path><path class="cls-6" d="M416.71,144.77h-2.14s-1.95-4.74-1.95-4.74h-6.08l-1.96,4.74h-1.97s6.7-15.68,6.7-15.68h.49l6.91,15.69Zm-4.68-6.12l-2.56-6.58-2.48,6.58h5.04Z"></path><path class="cls-6" d="M434.35,135.25c-.4,.7-1,1.16-1.79,1.39,.92,.18,1.64,.63,2.15,1.36,.52,.73,.77,1.56,.77,2.48,0,.69-.13,1.33-.4,1.92-.27,.59-.67,1.09-1.21,1.51-.33,.21-.69,.38-1.09,.53-.4,.15-.8,.25-1.22,.32h-5.46v-15.25l4.74,.06c1.1,0,2.04,.4,2.82,1.19,.78,.79,1.17,1.7,1.17,2.73,0,.6-.16,1.19-.49,1.76Zm-1.42-2.15c-.15-.64-.49-1.14-1.02-1.48-.53-.35-1.14-.52-1.82-.52h-2.23v5.11h2.84c.71-.11,1.27-.4,1.67-.86,.4-.46,.6-1.04,.6-1.72,0-.08,0-.18-.02-.29-.01-.11-.02-.19-.02-.25Zm-.41,5.16c-.25-.17-.52-.3-.83-.41-.3-.1-.6-.16-.89-.16h-2.95v5.63l3.32-.04c.74-.1,1.33-.41,1.75-.94,.43-.53,.64-1.15,.64-1.86,0-.45-.09-.85-.26-1.23-.17-.38-.44-.71-.79-1Z"></path><path class="cls-6" d="M454.53,144.77h-7.52v-15.25h1.9v13.6h5.63v1.65Z"></path><path class="cls-6" d="M475.66,144.77h-8.29v-15.25h8.29v1.65h-6.45v4.51h6.45v1.57h-6.45v5.87h6.45v1.65Z"></path><path class="cls-6" d="M521.8,144.77h-2l-1.67-11.52-4.85,11.94h-.53s-4.75-12-4.75-12l-1.82,11.58h-1.89s3.03-15.69,3.03-15.69h.64l5.21,12.7,5.11-12.7h.64l2.86,15.69Z"></path><path class="cls-6" d="M541.94,137.03c0,2.26-.79,4.18-2.38,5.77-1.59,1.59-3.51,2.38-5.76,2.38s-4.24-.77-5.88-2.3c-1.64-1.53-2.46-3.42-2.46-5.64s.79-4.18,2.38-5.77c1.59-1.59,3.51-2.38,5.76-2.38s4.24,.77,5.89,2.3c1.64,1.53,2.46,3.42,2.46,5.65Zm-1.9-.04c0-1.75-.63-3.23-1.9-4.44-1.26-1.21-2.78-1.82-4.56-1.82s-3.22,.63-4.43,1.9c-1.21,1.27-1.81,2.79-1.81,4.56s.63,3.22,1.89,4.43c1.26,1.2,2.78,1.8,4.57,1.8s3.22-.63,4.43-1.9c1.21-1.27,1.81-2.78,1.81-4.54Z"></path><path class="cls-6" d="M558.02,135.25c-.4,.7-1,1.16-1.79,1.39,.92,.18,1.64,.63,2.15,1.36,.52,.73,.77,1.56,.77,2.48,0,.69-.13,1.33-.4,1.92-.27,.59-.67,1.09-1.21,1.51-.33,.21-.69,.38-1.09,.53-.4,.15-.8,.25-1.22,.32h-5.46v-15.25l4.74,.06c1.1,0,2.04,.4,2.82,1.19,.78,.79,1.18,1.7,1.18,2.73,0,.6-.17,1.19-.5,1.76Zm-1.42-2.15c-.15-.64-.49-1.14-1.02-1.48-.53-.35-1.14-.52-1.82-.52h-2.23v5.11h2.84c.71-.11,1.27-.4,1.67-.86,.4-.46,.6-1.04,.6-1.72,0-.08,0-.18-.02-.29-.01-.11-.02-.19-.02-.25Zm-.41,5.16c-.25-.17-.52-.3-.83-.41-.3-.1-.6-.16-.89-.16h-2.95v5.63l3.32-.04c.74-.1,1.33-.41,1.75-.94,.43-.53,.64-1.15,.64-1.86,0-.45-.09-.85-.26-1.23-.17-.38-.44-.71-.79-1Z"></path><path class="cls-6" d="M575.58,144.77h-1.79v-15.25h1.79v15.25Z"></path><path class="cls-6" d="M598.81,144.77h-7.52v-15.25h1.9v13.6h5.63v1.65Z"></path><path class="cls-6" d="M616.8,144.77h-1.79v-15.25h1.79v15.25Z"></path><path class="cls-6" d="M641.87,131.12h-4.39v13.65h-1.9v-13.65h-4.39v-1.61h10.68v1.61Z"></path><path class="cls-6" d="M663.16,129.52l-5.01,8.41v6.84h-1.85v-6.84l-5.17-8.41h2.27s3.92,6.8,3.92,6.8l3.73-6.79h2.12Z"></path></g></g></g></svg> 